<svg width="60" height="60" fill="none" xmlns="http://www.w3.org/2000/svg"><mask id="path-1-inside-1_0_79" fill="#fff"><path fill-rule="evenodd" clip-rule="evenodd" d="M37.22 23.131v.002C43.666 29.575 47.81 38.319 48.314 48h-3.663c-.996-17.363-14.937-31.322-32.281-32.326v-3.64c9.675.506 18.401 4.643 24.85 11.097zm-25.585-5.49c16.822.652 30.404 14.25 31.05 31.094.027.69.582 1.265 1.274 1.265h5.16c.69 0 1.25-.575 1.228-1.265-.33-10.527-4.745-20.052-11.713-27.017-6.97-6.977-16.477-11.385-27-11.717a1.23 1.23 0 00-1.264 1.23v5.135c0 .69.572 1.247 1.265 1.275zm-.01 5.97c6.777.317 12.89 3.212 17.387 7.717 4.51 4.512 7.392 10.63 7.717 17.407A1.216 1.216 0 0135.512 50h-5.168c-.69 0-1.247-.575-1.292-1.26-.303-4.547-2.21-8.797-5.448-12.025a18.611 18.611 0 00-11.98-5.455c-.687-.047-1.254-.605-1.254-1.295v-5.132c0-.692.567-1.252 1.255-1.223zm15.972 9.13c3.987 3.99 6.595 9.33 7.08 15.26h-3.679a20.64 20.64 0 00-5.98-12.7 20.608 20.608 0 00-12.648-5.986v-3.653c5.922.482 11.252 3.098 15.226 7.079h.001z"/></mask><path d="M37.22 23.133l-1.414 1.414 1.414-1.415zm0-.002l-1.416 1.414h.001l1.414-1.414zm11.094 24.87v2h2.107l-.11-2.105-1.997.104zm-3.663 0l-1.996.114.108 1.885h1.888v-2zM12.37 15.673h-2v1.887l1.884.11.116-1.997zm0-3.64l.104-1.998-2.104-.11v2.107h2zm30.314 36.701l-1.998.077v.003l1.998-.08zM11.634 17.64l-.079 1.998h.002l.078-1.998zm38.713 31.094l-2 .063v.002l2-.065zM38.634 21.718l-1.415 1.413.001.002 1.414-1.415zm-27-11.717L11.57 12h.001l.064-2zm17.378 21.327l-1.416 1.413h.001l1.415-1.413zM11.625 23.61l.093-1.997h-.006l-.087 1.997zm25.104 25.125l1.998-.094v-.002l-1.998.096zm-7.677.005l1.996-.13v-.002l-1.996.132zm-5.448-12.025l-1.416 1.412.004.005 1.412-1.417zm-11.98-5.455l-.137 1.996h.004l.134-1.996zM34.679 48v2h2.17l-.177-2.163-1.993.163zm-7.08-15.258l1.414-1.414-1.415 1.414zM30.997 48l-1.99.19.172 1.81h1.818v-2zm-5.98-12.699l-1.416 1.412.004.004 1.413-1.416zM12.37 29.315h-2v1.816l1.807.175.193-1.991zm0-3.653l.162-1.993-2.162-.176v2.17h2zm15.226 7.079l-1.415 1.413.001.001 1.415-1.414zm11.039-11.023h-.002l-2.828 2.828h.001l2.829-2.828zm11.677 26.178c-.532-10.194-4.896-19.399-11.678-26.178l-2.828 2.829c6.11 6.107 10.033 14.389 10.511 23.558l3.995-.209zM44.652 50h3.662v-4h-3.663v4zM12.253 17.67c16.329.946 29.463 14.094 30.4 30.445l3.994-.23C45.594 29.51 30.845 14.74 12.485 13.678l-.231 3.994zm-1.884-5.637v3.64h4v-3.64h-4zm28.264 9.685c-6.784-6.791-15.971-11.148-26.16-11.682l-.21 3.994c9.163.48 17.428 4.396 23.54 10.515l2.83-2.827zm6.049 26.94c-.685-17.887-15.103-32.323-32.97-33.016l-.156 3.997c15.777.612 28.524 13.37 29.129 29.173l3.997-.153zM43.959 48a.7.7 0 01.724.656l-3.997.159C40.753 50.493 42.11 52 43.959 52v-4zm5.16 0h-5.16v4h5.16v-4zm-.771.8a.77.77 0 01.771-.8v4a3.23 3.23 0 003.227-3.33l-3.998.13zM37.22 23.133c6.623 6.62 10.814 15.667 11.128 25.665l3.998-.125c-.347-11.057-4.985-21.06-12.298-28.37l-2.828 2.83zM11.571 12c9.994.315 19.023 4.5 25.648 11.131l2.83-2.826C32.734 12.982 22.75 8.35 11.698 8.002L11.57 12zm.799-.77a.77.77 0 01-.8.77l.13-3.998a3.23 3.23 0 00-3.33 3.229h4zm0 5.136V11.23h-4v5.135h4zm-.656-.724a.7.7 0 01.656.724h-4c0 1.84 1.5 3.206 3.185 3.273l.159-3.997zm18.713 14.273c-4.834-4.842-11.412-7.96-18.709-8.302l-.187 3.995c6.258.293 11.905 2.965 16.066 7.133l2.83-2.826zm8.3 18.724c-.35-7.293-3.453-13.875-8.3-18.725l-2.83 2.828c4.173 4.175 6.834 9.828 7.135 16.089l3.995-.192zM35.512 52c1.807 0 3.302-1.505 3.215-3.359l-3.995.188a.784.784 0 01.78-.829v4zm-5.168 0h5.168v-4h-5.168v4zm-3.288-3.129c.107 1.63 1.441 3.13 3.288 3.13v-4c.228 0 .41.097.52.206a.62.62 0 01.184.402l-3.992.262zm-4.864-10.74c2.89 2.88 4.594 6.673 4.864 10.742l3.991-.265c-.334-5.026-2.445-9.734-6.03-13.309l-2.825 2.833zm-10.701-4.875c4.034.27 7.81 1.976 10.697 4.871l2.833-2.824a20.611 20.611 0 00-13.263-6.038l-.267 3.991zm-3.121-3.29c0 1.835 1.478 3.176 3.117 3.29l.275-3.99a.673.673 0 01.608.7h-4zm0-5.133v5.132h4v-5.132h-4zm3.342-3.22c-1.867-.082-3.342 1.43-3.342 3.22h4a.787.787 0 01-.833.776l.175-3.997zM36.67 47.836c-.526-6.42-3.35-12.197-7.66-16.51l-2.828 2.829c3.664 3.666 6.056 8.567 6.501 14.008l3.987-.327zM30.998 50h3.68v-4h-3.68v4zm-7.392-13.283a18.64 18.64 0 015.401 11.473l3.982-.38a22.64 22.64 0 00-6.558-13.925l-2.825 2.832zm-11.429-5.411a18.608 18.608 0 0111.425 5.407l2.833-2.824a22.608 22.608 0 00-13.873-6.565l-.385 3.982zm-1.807-5.644v3.653h4v-3.653h-4zm18.642 5.666c-4.296-4.303-10.064-7.137-16.48-7.66l-.325 3.988c5.43.442 10.322 2.84 13.974 6.498l2.83-2.826zm0 0l-.001-.001-2.829 2.828.001.001 2.829-2.828z" fill="#46B843" mask="url(#path-1-inside-1_0_79)"/><circle cx="14.717" cy="44.783" stroke="#46B843" stroke-width="2" r="5.217"/></svg>