<svg width="11" height="23" fill="none" xmlns="http://www.w3.org/2000/svg"><path d="M6.512.348v3.105H5.316V.348h1.196zm-.035 19.195v2.895H5.28v-2.895h1.196zm3.093-3.75c0-.578-.12-1.078-.363-1.5-.234-.43-.633-.816-1.195-1.16-.555-.352-1.313-.695-2.274-1.031-.984-.32-1.836-.684-2.554-1.09-.711-.407-1.262-.914-1.653-1.524-.383-.617-.574-1.39-.574-2.32 0-.914.2-1.707.598-2.379a3.995 3.995 0 011.722-1.547c.743-.367 1.614-.55 2.614-.55.773 0 1.464.113 2.074.34A3.954 3.954 0 019.523 4.05c.43.445.758.996.985 1.652.226.649.34 1.399.34 2.25H9.453c0-.578-.078-1.11-.234-1.594a3.531 3.531 0 00-.68-1.265 3.012 3.012 0 00-1.125-.844c-.437-.203-.945-.305-1.523-.305-.805 0-1.47.145-1.993.434-.523.289-.91.676-1.16 1.16a3.423 3.423 0 00-.375 1.594c0 .57.106 1.07.317 1.5.21.43.593.82 1.148 1.172.555.343 1.352.691 2.39 1.043.985.32 1.829.683 2.532 1.09.71.406 1.258.914 1.64 1.523.383.601.575 1.371.575 2.309 0 .945-.215 1.753-.645 2.425-.43.664-1.03 1.172-1.804 1.524-.774.351-1.676.527-2.707.527-.664 0-1.32-.086-1.97-.258a5.14 5.14 0 01-1.757-.867c-.523-.398-.941-.926-1.254-1.582-.312-.664-.469-1.48-.469-2.45h1.395c0 .759.121 1.388.363 1.888s.559.898.95 1.195c.398.297.835.508 1.312.633a5.61 5.61 0 001.43.187c.796 0 1.472-.14 2.027-.422.562-.289.992-.675 1.289-1.16a3.073 3.073 0 00.445-1.617z" fill="#22252E"/></svg>